Patient4_TMGait_0pt3_01_right_28_GRF.mot
version=1
nRows=26
nColumns=19
inDegrees=no
endheader
time	F1x	F1y	F1z	M1x	M1y	M1z	F2x	F2y	F2z	M2x	M2y	M2z	EC1x	EC1y	EC1z	EC2x	EC2y	EC2z
51.85	-16.0212	796.9741	57.3677	-279.0208	-60.4933	768.7567	2.18	1.7343	-3.1528	1.1434	1.4206	1.4303	-0.0592	0.0182	-0.0073	-0.0462	0.0165	0.9585
51.8699	-15.7503	830.624	57.4673	-291.1001	-59.5404	797.9035	1.4126	1.6267	-2.1981	0.94609	1.067	1.4614	-0.0592	0.0182	-0.0073	-0.0462	0.0165	0.9585
51.8899	-15.2886	866.2772	57.5515	-303.9339	-58.4243	828.0154	0.75627	1.5634	-1.3874	0.79047	0.76076	1.5205	-0.0592	0.0182	-0.0073	-0.0462	0.0165	0.9585
51.9098	-14.4859	899.0941	57.607	-315.77	-57.1364	854.6588	0.25057	1.5517	-0.7739	0.68743	0.52472	1.6034	-0.0592	0.0182	-0.0073	-0.0462	0.0165	0.9585
51.9297	-13.2202	923.7155	57.5926	-324.6634	-55.6486	873.0301	-0.10328	1.5846	-0.35848	0.63316	0.36383	1.7026	-0.0592	0.0182	-0.0073	-0.0462	0.0165	0.9585
51.9496	-11.4219	935.538	57.4125	-328.9464	-53.895	879.0985	-0.32622	1.6386	-0.11236	0.61318	0.27209	1.7999	-0.0592	0.0182	-0.0073	-0.0462	0.0165	0.9585
51.9696	-9.0576	931.8319	56.9411	-327.6355	-51.7833	870.5869	-0.45125	1.6747	0.0020373	0.60666	0.2381	1.8647	-0.0592	0.0182	-0.0073	-0.0462	0.0165	0.9585
51.9895	-6.1286	912.3136	56.0725	-320.6351	-49.2421	847.4584	-0.51284	1.6425	0.023729	0.58737	0.24673	1.8544	-0.0592	0.0182	-0.0073	-0.0462	0.0165	0.9585
52.0094	-2.6712	879.184	54.7549	-308.7428	-46.2469	811.9172	-0.53648	1.4766	-0.011733	0.52355	0.2809	1.7043	-0.0592	0.0182	-0.0073	-0.0462	0.0165	0.9585
52.0294	1.2591	836.7213	53.0239	-293.494	-42.8426	768.0018	-0.53793	1.0977	-0.072931	0.3787	0.32313	1.3317	-0.0592	0.0182	-0.0073	-0.0462	0.0165	0.9585
52.0493	5.5889	790.5275	51.0158	-276.8909	-39.1591	720.8717	-0.52564	0.41566	-0.13409	0.11319	0.35665	0.64412	-0.0592	0.0182	-0.0073	-0.0462	0.0165	0.9585
52.0692	10.2429	746.5939	48.9431	-261.0681	-35.3836	675.9327	-0.49577	-0.65271	-0.17366	-0.30855	0.36328	-0.44578	-0.0592	0.0182	-0.0073	-0.0462	0.0165	0.9585
52.0891	15.1851	710.3337	47.0461	-247.9518	-31.704	637.9697	-0.43372	-2.1611	-0.17314	-0.90816	0.32169	-1.9951	-0.0592	0.0182	-0.0073	-0.0462	0.0165	0.9585
52.1091	20.4026	685.6856	45.5512	-238.9425	-28.2847	610.3855	-0.31504	-4.0955	-0.11417	-1.6775	0.20539	-3.9862	-0.0592	0.0182	-0.0073	-0.0462	0.0165	0.9585
52.129	25.8649	674.4728	44.6464	-234.6849	-25.2664	594.6988	-0.10835	-6.3126	0.024566	-2.5564	-0.018152	-6.273	-0.0592	0.0182	-0.0073	-0.0462	0.0165	0.9585
52.1489	31.4871	676.1973	44.4627	-234.9904	-22.7677	590.4244	0.21781	-8.4741	0.26122	-3.4066	-0.38118	-8.5102	-0.0592	0.0182	-0.0073	-0.0462	0.0165	0.9585
52.1689	37.0933	688.2528	45.0572	-238.9142	-20.8915	595.3126	0.6886	-9.9643	0.60444	-3.9783	-0.90458	-10.0639	-0.0592	0.0182	-0.0073	-0.0462	0.0165	0.9585
52.1888	42.4123	706.4758	46.3947	-244.9548	-19.7136	605.8504	1.3087	-9.8182	1.0472	-3.8819	-1.5853	-9.9372	-0.0592	0.0182	-0.0073	-0.0462	0.0165	0.9585
52.2087	47.113	725.9466	48.3416	-251.3484	-19.2626	617.9381	2.0425	-6.6701	1.5574	-2.5691	-2.3761	-6.7111	-0.0592	0.0182	-0.0073	-0.0462	0.0165	0.9585
52.2286	50.8635	741.8763	50.6745	-256.3941	-19.5018	627.6314	2.7904	1.2351	2.0636	0.65935	-3.159	1.4399	-0.0592	0.0182	-0.0073	-0.0462	0.0165	0.9585
52.2486	53.3967	750.3889	53.0961	-258.7405	-20.3113	631.7693	3.3628	15.918	2.4373	6.602	-3.7166	16.6159	-0.0592	0.0182	-0.0073	-0.0462	0.0165	0.9585
52.2685	54.5686	748.9542	55.2481	-257.5395	-21.4741	628.2986	3.4583	39.3603	2.4715	16.0338	-3.7026	40.8868	-0.0592	0.0182	-0.0073	-0.0462	0.0165	0.9585
52.2884	54.3674	736.3245	56.7511	-252.4173	-22.6995	616.1821	2.6073	72.9849	1.8673	29.4963	-2.6125	75.751	-0.0592	0.0182	-0.0073	-0.0462	0.0165	0.9585
52.3084	52.8949	712.1664	57.2585	-243.3347	-23.673	595.081	0.064021	116.9389	0.25516	47.0098	0.22418	121.3829	-0.0592	0.0182	-0.0073	-0.0462	0.0165	0.9585
52.3283	50.3241	676.7506	56.5163	-230.4649	-24.1268	565.1139	-4.7451	169.4384	-2.7313	67.8127	5.389	175.9529	-0.0592	0.0182	-0.0073	-0.0462	0.0165	0.9585
52.3482	46.8678	630.9508	54.4183	-214.1805	-23.894	526.8717	-11.3482	226.6408	-7.259	90.3234	12.8358	235.4131	-0.0592	0.0182	-0.0073	-0.0462	0.0165	0.9585
